<?xml version="1.0" standalone="no"?>
<!DOCTYPE svg PUBLIC "-//W3C//DTD SVG 20010904//EN"
 "http://www.w3.org/TR/2001/REC-SVG-20010904/DTD/svg10.dtd">
<svg version="1.0" xmlns="http://www.w3.org/2000/svg"
 width="32.000000pt" height="32.000000pt" viewBox="0 0 32.000000 32.000000"
 preserveAspectRatio="xMidYMid meet">

<g transform="translate(0.000000,32.000000) scale(0.100000,-0.100000)"
fill="#000000" stroke="none">
<path d="M56 204 c-10 -26 -7 -79 6 -92 17 -17 48 -15 55 3 7 21 -6 33 -16 16
-13 -20 -31 -4 -31 28 0 34 9 44 27 29 17 -13 28 -4 20 17 -8 20 -53 19 -61
-1z"/>
<path d="M141 163 c-12 -62 -8 -77 13 -48 13 18 13 18 24 -1 18 -32 23 -10 11
49 -7 32 -17 57 -24 57 -7 0 -17 -25 -24 -57z m26 -15 c-3 -8 -6 -5 -6 6 -1
11 2 17 5 13 3 -3 4 -12 1 -19z"/>
<path d="M200 210 c0 -5 5 -10 10 -10 6 0 10 -22 10 -50 0 -27 5 -50 10 -50 6
0 10 23 10 50 0 28 5 50 10 50 6 0 10 5 10 10 0 6 -13 10 -30 10 -16 0 -30 -4
-30 -10z"/>
</g>
</svg>
